# xmcd
#
# Track frame offsets:
#	150
#	14384
#	30551
#	46415
#	63642
#	82913
#	99771
#	123888
#	141912
#	164510
#	182922
#	202286
#	229377
#	246246
#	258641
#	272509
#	288291
#	307206
#	324277
#
# Disc length: 4542 seconds
#
# Revision: 0
# Processed by: cddbd v1.5.2PL0 Copyright (c) Steve Scherf et al.
# Submitted via: audiograbber 1.83.01
#
DISCID=1611bc13
DTITLE=Ian Tyson - All The Good'Uns Vol. 2
DYEAR=2013
DGENRE=Country
TTITLE0=Land Of Shining Mountians
TTITLE1=Brahmas And Mustangs
TTITLE2=This Is My Sky
TTITLE3=Smuggler's Cove
TTITLE4=Lost Herd
TTITLE5=Elko Blues - The Roan Mare
TTITLE6=La Primera
TTITLE7=Jerry Ambler
TTITLE8=Bob Fudge
TTITLE9=Little High Plains Town
TTITLE10=Blaino's Song
TTITLE11=Yellowhead To Yellowstone
TTITLE12=Fiddler Must Be Paid
TTITLE13=Ross Knox
TTITLE14=Song In A Dream
TTITLE15=Charles Goodnight's Grave
TTITLE16=Road To Las Cruces
TTITLE17=Love Without End
TTITLE18=Somewhere Over The Rainbow
EXTD=
EXTT0=
EXTT1=
EXTT2=
EXTT3=
EXTT4=
EXTT5=
EXTT6=
EXTT7=
EXTT8=
EXTT9=
EXTT10=
EXTT11=
EXTT12=
EXTT13=
EXTT14=
EXTT15=
EXTT16=
EXTT17=
EXTT18=
PLAYORDER=
